<svg width="13" height="16" viewBox="0 0 13 16" fill="none" xmlns="http://www.w3.org/2000/svg">
<path d="M8.89227 10.1991H9.88072C10.9935 10.1991 12.0809 11.0107 11.8959 12.0545L11.6944 13.0439C11.4175 14.1957 10.792 14.8993 9.6792 15H3.33339C2.2206 14.8993 1.62109 14.0222 1.3182 13.0439L1.11668 12.0545C0.871436 11.0418 2.01908 10.1991 3.13187 10.1991H4.09311M3.08653 4.35241C2.85882 4.35241 2.6313 4.54017 2.6313 4.77153V5.60959C2.6313 5.84076 2.83524 6.02889 3.08653 6.02889C3.08653 6.02889 3.76928 7.70482 4.22431 8.3336C4.50623 8.72322 4.90705 9.65849 6.50005 9.65849C8.09306 9.65849 8.49368 8.72322 8.7758 8.3336C9.23103 7.70482 9.91358 6.02889 9.91358 6.02889C10.1647 6.02889 10.3688 5.84076 10.3688 5.60959V4.77153C10.3688 4.54017 10.1647 4.35241 9.91358 4.35241V3.72382C9.91358 2.25718 9.01238 1 6.50005 1C3.99659 1 3.08653 2.25699 3.08653 3.72382V4.35241Z" stroke="white" stroke-miterlimit="10" stroke-linecap="round" stroke-linejoin="round"/>
</svg>
